<svg version="1.2" xmlns="http://www.w3.org/2000/svg" viewBox="0 0 1000 940" width="1000" height="940">
	<title>GIFT CARDS-03-svg</title>
	<defs>
		<clipPath clipPathUnits="userSpaceOnUse" id="cp1">
			<path d="m0-0.13h1000v939.83h-1000z"/>
		</clipPath>
		<clipPath clipPathUnits="userSpaceOnUse" id="cp2">
			<path d="m0-0.13h1000v939.83h-1000z"/>
		</clipPath>
	</defs>
	<style>
		.s0 { fill: #231f20 } 
		.s1 { fill: #cc0066 } 
		.s2 { fill: #ffffff } 
	</style>
	<g id="Layer">
		<g id="Layer">
			<g id="Clip-Path" clip-path="url(#cp1)">
				<path id="Layer" class="s0" d="m0-44.3h1000.3v984h-1000.3z"/>
			</g>
			<g id="Clip-Path" clip-path="url(#cp2)">
				<g id="Layer">
					<g id="Layer">
						<g id="Layer">
							<path id="Layer" class="s1" d="m971.6 72.1q0-0.4 0-0.8c0 0 0-0.3 0-0.4 0.1-0.2 0.2-0.7 0.2-0.7q0.1-0.3 0.1-0.6 0.1-0.2 0.2-0.4 0-0.1 0-0.1c0.3-0.4 0.5-0.8 0.7-1.2 0.1-0.1 0.2-0.3 0.3-0.4q0.2-0.3 0.5-0.5c0.1-0.1 0.2-0.2 0.4-0.4q0.6 0 1.3-0.3c0.1-0.1 0.4-0.2 0.4-0.2q0.1-0.1 0.1-0.1 0.6-0.2 1.2-0.3 0 0 0.1 0 0 0 0 0 0.3 0 0.5 0 0.6-0.1 1.2 0c0.1 0 0.7 0.2 0.8 0.2 0.4 0.1 0.8 0.2 1.1 0.4q0.3 0.1 0.6 0.3c0.4 0.2 0.8 0.5 1.2 0.7q0 0 0 0 0.2 0.2 0.4 0.4c0.2 0.2 0.3 0.3 0.5 0.5q0 0 0.1 0.1c0 0.1 0.3 0.3 0.3 0.3q0.1 0.3 0.3 0.5 0.1 0.3 0.2 0.6 0.1 0 0.1 0 0 0.1 0 0.1 0.2 0.6 0.3 1.2 0 0.1 0 0.1v0.1c0 0.2 0 0.4 0 0.5 0 0.2 0 0.5 0 0.7q0 0 0 0 0 0 0 0.1-0.2 0.7-0.4 1.5 0 0 0 0-0.2 0.3-0.3 0.6-0.4 0.6-0.7 1.1 0 0-0.1 0.1-0.2 0.3-0.5 0.5-0.2 0.2-0.4 0.4c0 0-0.3 0.3-0.5 0.4-0.1 0.1-0.3 0.3-0.3 0.3q-0.2 0.1-0.4 0.2-0.4 0.2-0.7 0.4 0 0 0 0-0.6 0.2-1.2 0.4c-0.1 0-0.5 0-0.5 0q-0.3 0-0.5 0-0.4 0-0.7 0h-0.1q-0.1 0-0.2 0c-0.5-0.2-1-0.3-1.5-0.5-0.1 0-0.4-0.2-0.4-0.2q-0.4-0.2-0.7-0.4-0.2-0.1-0.3-0.2c0-0.1-0.6-0.5-0.6-0.6q-0.2-0.2-0.4-0.4-0.1-0.1-0.2-0.1c0-0.1 0-0.1 0-0.1q-0.4-0.6-0.7-1.1-0.1-0.3-0.2-0.5c-0.1-0.1-0.1-0.3-0.2-0.4q-0.2-0.6-0.3-1.3c0-0.1-0.1-0.4-0.1-0.5z"/>
						</g>
						<g id="Layer">
							<path id="Layer" class="s1" d="m366.5 552.8c-11.6-51.3-65.5-77.2-103.4-108.2-22.7-18.7-40.2-41.8-48.2-70.4-7.5-27.2-5.9-56.1 4.7-82.2 10.4-25.4 28.9-47.3 52.4-61.6 24.9-15 53.9-21.5 82.7-23.9 6.7-0.6 13.5-0.9 20.2-1.1-9.5 17.1-17.2 36-17.5 55.8-0.2 10.4 2.7 20.1 4.5 30.2 1.7 9.8 0 19.5-1.6 29.2-1.7 10.5-3 21.3 0.6 31.6q0.2 0.5 0.4 0.9c-1.3 7.1-3.6 13.9-7.2 20.3-1.2 2.2 0.9 5.4 3.5 4.5 5.3-1.7 9.5-4.8 13.3-8.3-1 12.5 4 24.9 13.5 33.3-0.9 0.4-1.8 0.8-2.6 1.4-6.2 4.5-4.2 12.6-3.8 19.2 0.5 7.6 2.1 16.1-0.7 23.4-0.3 0.8-0.2 1.4 0 2-8.1 15.9-13.9 33-9.9 50.9-2 17.6-2.3 35.4-0.9 53z"/>
						</g>
						<g id="Layer">
							<path id="Layer" class="s1" d="m237.1 251.9c-11.2 13.1-19.6 27.9-25.1 43.5 3.3-12.8 8.3-25.2 15.3-36.6 12.9-21.2 32.2-35.7 54.2-46.6 22.4-11.1 46.4-18.9 68-31.5 21.8-12.7 38.1-30.9 52-51.6 0.1 0 0.2 0 0.3-0.1 17.6-7.2 31.7-20.2 48.4-29.1 17.3-9.2 36.9-12.5 56.3-13.3 20-0.7 40.1 0.7 60 2.6 20.1 2 40.1 4.9 59.9 8.8 39.6 7.8 78.5 19.4 115.9 34.5 38.5 15.6 75 35.5 110.2 57.7 26.3 16.6 52.1 34 77.9 51.4-17-8.5-34.5-15.6-53.6-19-33.1-5.7-67.2-3.6-100.6-5.6-70.6-4.3-140.7-15.5-210.7-24.8-65.2-8.7-132.8-21.5-198.3-8.8-7.9 1.5-15.8 3.4-23.5 5.7-3.8 1.2-2.1 7.2 1.7 6 63.2-19 130.1-8.7 194.2-0.2 69 9.2 138 19.9 207.3 26 17.2 1.6 34.5 2.7 51.7 3.3 16.6 0.6 33.2 0.5 49.7 1.5 16.5 1 32.9 3.1 48.7 8.2 14.6 4.7 28.3 11.6 41.8 18.9 13.6 7.3 26.9 15.1 40.8 21.7 13.4 6.4 27.3 11.5 41.3 16.1 28.6 9.4 58.1 17 84.4 32.1 23.7 13.5 42.6 32.5 58.4 54.2q0.8 1.7 1.7 3.3c0.5 0.7 1 1.1 1.6 1.3 8.8 12.7 16.6 26.1 23.8 39.8-13.7-18.1-29.1-34.6-46.5-49.7-12.2-10.6-24.9-20.8-37.6-30.9-12.3-9.8-24.9-19.3-38.8-26.7-27.8-14.8-59.5-18.9-88.5-30.5-28.3-11.3-54.2-27.8-82.8-38.3-31-11.5-62.7-10.8-95.2-10.1-55.6 1.2-111-4.2-166.1-11.2-0.5-0.4-1-0.7-1.8-0.7q-3-0.3-6-0.3-15.8-2.1-31.7-4.3c-66.8-9-133.9-18.8-201.5-19.5-56.4-0.6-118.3 7.6-157.2 52.8z"/>
						</g>
						<g id="Layer">
							<g id="Layer">
								<path id="Layer" fill-rule="evenodd" class="s1" d="m753.9 969.1q-43.4 24.9-86.7 49.7c-27.2 15.6-54.3 32.5-83.7 43.9-27.6 10.8-57.2 15.8-86.8 14.9-28.5-0.9-58.5-6.9-84.1-19.7-6.5-3.2-12.2-7.4-15.5-13.9-3.1-6.3-4.1-13.6-4.7-20.5-1.2-14.4-0.1-29 2-43.2 4.4-28.4 12.7-56 16.6-84.5 1.9-13.5 2.8-27.3 1.5-40.9-1.3-14.3-5.1-27.9-10.6-41.1-11.4-26.9-27.5-51.2-35.7-79.5-8.2-28.4-10.5-58.5-6.5-87.8 2.2-15.6 5.7-31.7 12.2-46.2q0.7-2.4 1.7-4.7 0.7-1.8 1.6-3.5 0.2-0.4 0.4-0.8 0.5-0.9 1.1-1.9 0.1 0 0.1-0.1 1.9-2.9 4.4-5.4c3.2-4.6 6.9-8.9 11.1-12.7 6.2-5.7 13.1-10.4 20.5-14.3q0.1 0.1 0.2 0.2c1.3-0.8 2.6-1.6 3.9-2.2q0 0 0-0.1c12.6-6 26.3-9.8 39.9-12.3 27.8-5.2 56.6-5.2 84.8-4.2 16.3 0.7 32.8 1.7 48.9 4.2 14.1 2.1 27.9 5.9 39.9 13.8 20.3 13.5 32.6 35.9 41.4 58 4.4 11.2 8 22.5 11.5 34 0.6 1.9 2.7 2.7 4.6 1.8 52.9-27.2 103.1-61.4 143.8-105.1 21.1-22.7 39.1-47.8 54-74.9 16.1-29.3 29-60.2 41.6-91.1q2.9-7 5.6-14c19.3-0.2 38.1 4.7 56.7 10.6 13.2 4.2 26.4 8.5 39.5 13.1q-0.4 2.6-1 5.2-4.1 21.1-10.4 41.7c-4.2 13.8-9.4 27.2-14.4 40.7-5.5 14.6-10.2 29.9-8.7 45.6q0.1 0.9 0.6 1.6c2.2 20.1 14.7 38.6 32.8 47.8q0.1 0 0.2 0.1c3.3 56.6 5.4 114.9-14.1 168.9-19 52.5-57.4 95.4-100.7 129.5-49.2 38.8-105.3 68.3-159.5 99.3zm-125.1-242.1c-0.2-9.5-2-19-4.4-28.1-4.3-15.7-11.2-30.8-20.1-44.3-16.2-24.6-39-44.6-65.6-57.1-0.1-1.1-0.7-2.2-2.1-2.7q-25.1-7.7-50.7-13.4c-1.5-0.4-2.6 0.3-3.3 1.2q-4.8-1.5-9.7-2.7c-7.9-2-15.9-3-23.8-0.8-6.8 1.9-13.1 5.8-17.7 11.2-8.3-3.7-17.6-1.3-24.4 4.4-7.1 6-11.6 15-14.6 23.6-6.3 17.9-4.9 37.9 3.5 54.8 4.4 8.8 10.6 16.6 18.1 22.9-7.6 6.7-12 16.5-13 26.9-1.1 10.5 1.1 22.3 7.9 30.6 12.3 34.9 30.7 67.6 54.1 96.3q4.5 5.6 9.4 11c3 3.4 6.1 7 9.7 9.9 8.2 6.5 17.4 3.3 26-0.4 16.5-7 31.3-17.3 44.6-29.1 13.6-12.1 25.6-25.8 37.1-39.9q8.7-10.5 17.1-21.3c5.9-7.6 11.7-15.4 15.8-24.1 4.3-9.1 6.4-18.8 6.1-28.9z"/>
							</g>
						</g>
						<g id="Layer">
							<g id="Layer">
								<path id="Layer" fill-rule="evenodd" class="s1" d="m620.8 710.7c1.9 9.9 2.9 20.2 0.7 30.1-3.9 17.8-16.9 32.2-27.9 46.1-10.8 13.5-21.8 26.8-33.9 39.1-12 12.1-25.2 23.2-40 31.7-7.4 4.2-15.6 8.7-23.8 10.4-4.8 1-8.5-0.6-11.9-3.9-3.3-3.1-6.3-6.6-9.3-10.1-24-27.3-43.2-59-56.4-92.9q-0.1-0.3-0.2-0.6c5.3 2.4 11.3 2.9 17 2.7 8.3-0.4 16.6-1.5 24.8-2.5q12.8-1.7 25.5-3.9c7.8-1.4 15.7-2.9 23.2-5.6 15-5.2 26.2-15.5 36.8-26.9 11.9-12.7 23.7-25.4 35.5-38.1q4.5-4.9 9-9.7c0.5-0.5 0.7-1.1 0.8-1.7 1.5-0.2 2.9-1.4 2.9-2.9 1.8-1.7 0.3-5.5-2.7-5.4-19.2-31-47.5-56.6-80.3-72.8q2.6 0.7 5.2 1.4c0.2 0.2 0.5 0.4 0.9 0.5 29.8 8.9 56.2 27.7 75.3 52.3 9.4 12.1 17.1 25.7 22.5 40.1 2.7 7.4 4.8 14.9 6.3 22.6zm-79.2 60.8c-3.5-2.6-7.9-2.2-11.9-1.6q-17.3 2.1-34.8 2.6c-11.6 0.3-23.2 0-34.8-1-4.3-0.3-8.8-0.8-12.9 1-3.9 1.7-6.4 5.6-6.2 9.9 0.1 5.1 2.9 9.7 5.9 13.6 3.5 4.6 7.2 9 10.8 13.5 6.3 7.9 12.4 16.1 17.5 24.8-0.1 0.8 0.3 1.6 1.2 2.1q0.7 1.4 1.4 2.7c0.6 1 1.3 1.4 2.2 1.5 0.7 1.6 1.3 3.3 2.3 4.4 2.9 3.3 7.5 3.7 11.5 2.3 4.3-1.6 8.1-4.6 11.7-7.4q5.4-4.2 10.3-9.1c12.9-12.9 23.4-29.4 28.5-47.1 1.2-4.3 1.2-9.3-2.7-12.2z"/>
							</g>
						</g>
						<g id="Layer">
							<g id="Layer">
								<path id="Layer" fill-rule="evenodd" class="s1" d="m412.8 116.6q-2.5 1.5-5 2.8c11.9-18.6 23-37.7 36.5-55.3q8.2-10.7 17.1-20.9c0.6 0.2 1.2 0.3 1.8 0.1 23.9-4.6 48.3-5.7 72.5-3.6 1.7 0.2 3-1.5 3.1-3.1 0.5-8.1 5.3-14.9 10.8-20.7 6.1-6.5 13.2-12.3 20-18.1q22.2-19 45.6-36.4 13.3-9.8 26.9-19.1c1.9-1.2 2.1-4.1 0-5.3-6.5-3.7-13.7-5.9-21-6.5 19.9-7.9 40.4-14.3 61.3-18.9 47.6-10.5 97-11.5 144.8-2 55.8 11.1 108 34.9 157.3 62.9 24.7 14 48.8 29.1 72.7 44.5 23.9 15.4 48.3 30.6 69 50.3 36.4 34.6 54.5 82.5 57.8 132 1.6 24.7-0.2 49.6-4.7 73.9-2.2 12.1-5.1 24-8.6 35.7-3.8 12.4-8.5 24.7-10.5 37.6-0.7 5-1 10.1-0.6 15-9.4-11.4-19.8-21.9-31.7-31.1-23.8-18.4-51.9-28.7-80.3-37.7-14.5-4.6-29.2-9.1-43.5-14.4-8.3-3.2-16.5-6.8-24.5-10.7q-0.3-0.6-0.9-1c-37-24.8-73.7-49.9-111.1-74-35.3-22.9-71.8-43.9-110.5-60.5-37.3-16.1-76.1-28.6-115.9-37.3-39.6-8.7-80.4-14-121-14.5-19.4-0.2-39.4 1.2-57.8 7.6-9.2 3.2-17.7 7.6-25.7 12.9-8.1 5.2-15.7 10.9-23.9 15.8zm552.6-45.3c-0.1 5.9 4 11.5 9.8 12.9 5.5 1.4 11.1-1.4 13.9-6.2 2.8-4.7 2.2-10.6-1.6-14.5-2.6-2.6-6.1-4-9.7-4-0.7-0.4-1.6-0.6-2.5-0.4-5.5 1.4-9.7 6.5-9.9 12.2z"/>
							</g>
						</g>
						<g id="Layer">
							<path id="Layer" class="s1" d="m467.6 36.3c24.5-26.6 52.5-50.1 83-69.6 16.8-10.7 34.3-20.3 52.4-28.5q0.6 0.1 1.3-0.1c10.1-2.8 20.7-2 30.2 2-15.2 10.5-30.1 21.5-44.6 32.9q-11.9 9.5-23.5 19.4c-7.2 6.2-14.7 12.3-21.2 19.2-5.9 6.2-10.8 13.4-12.2 21.8-21.8-1.8-43.8-0.7-65.4 2.9z"/>
						</g>
						<g id="Layer">
							<path id="Layer" class="s1" d="m1132.8 877.6c11.1 28.8 24 56.8 38.6 83.9-8.8 22.5-17.7 45-29.6 66-11.3 19.9-24.9 38.3-40 55.4-30.4 34.7-65.9 64.2-100.5 94.5-18.6 16.2-38.4 32.5-51.6 53.7-13.6-15-30.3-26.8-47.4-37.4-18.8-11.7-37.9-22.4-56.1-35-38.2-26.3-72.9-57.4-105.9-89.9-18-17.7-35.5-36-53-54.3q9.4-5.5 18.8-10.9 44.3-25.4 88.7-50.8c27.8-15.9 55.6-31.8 82.4-49.4 48.5-32 94.3-70.8 124.1-121.6 14.9-25.4 24.8-53.3 29.8-82.4 5.4-30.9 6-62.4 4.9-93.7-0.5-14.8-1.4-29.6-2.3-44.4 7.7 0.3 15.7-3 22.4-5.9 8.5-3.6 16.4-8.2 23.7-13.7 1.6-1.2 3.1-2.4 4.6-3.7-1.4 58.8-1.7 117.7 6.3 176.1 7.6 55.9 21.8 110.9 42.1 163.5z"/>
						</g>
						<g id="Layer">
							<path id="Layer" class="s1" d="m395.6 652.9c-3-16.4 0.7-34.7 10.6-48.2 5-6.8 14.2-13.1 22.9-8.7 0.8 0.4 1.6 0.4 2.3 0.2 1.1 0.6 2.5 0.7 3.5-0.6 4-4.9 9.1-8.5 15.1-10.3 6.7-2.1 13.5-1.3 20.3 0.3 11.9 2.9 23.6 7.1 34.6 12.4 22 10.4 41.8 24.9 58.4 42.6 7.8 8.3 14.7 17.3 20.8 26.9-9.5 0.9-19.3 0.6-29 0.3q-0.3-0.2-0.8-0.4c-18.6-5.3-37.4-10.4-56-16.1-15.2-4.6-32.4-12.3-37.1-29.1-1-3.8-7-2.2-5.9 1.7 3.5 12.8 13.4 21.2 24.8 26.9q-0.1 0.1-0.2 0.1c-11.2 8.7-25.8 19.2-40.3 11.4-14-7.6-18.6-23.9-22.5-38.1-1.1-3.8-7.1-2.2-6 1.6 4.5 16 10.1 34.1 26.1 42.2 4.3 2.1 8.5 3.1 12.7 3.1-1.4 2.8-2.9 5.4-4.6 8-2.1 3-4.1 5.5-6.7 8.3-0.3 0.2-0.5 0.6-0.7 1-4.7-0.6-9.4-0.2-14 1.6q-2.5 0.9-4.8 2.3c-12.2-9.9-20.7-23.9-23.5-39.4z"/>
						</g>
						<g id="Layer">
							<path id="Layer" class="s1" d="m538.9 778.9c0 3.7-2.2 8.1-3.5 11.6-1.5 3.7-3.3 7.3-5.2 10.9-3.9 7.1-8.5 13.7-13.8 19.8-6 6.8-12.9 13-20.5 18-3 2-7.4 4.6-9.7 0.6-1.7-2.9-2.6-6.1-5.3-7.9-3.8-6.6-8.1-12.9-12.7-18.9-5.6-7.3-11.8-14.2-17.2-21.7-1.9-2.7-4.5-6.6-3.8-10.2 0.8-3.7 5.3-3.8 8.3-3.7 9.8 0.4 19.5 1.3 29.3 1.4q15.2 0 30.3-1.2c5.2-0.5 10.4-1.1 15.6-1.7 2.8-0.4 8.1-1.2 8.2 3z"/>
						</g>
						<g id="Layer">
							<path id="Layer" class="s1" d="m522.8 665.4q0-0.2 0-0.3 4.8 1.3 9.6 2.6-4.5 0.3-8.9 0.9-0.4-1.6-0.7-3.2z"/>
						</g>
						<g id="Layer">
							<path id="Layer" class="s1" d="m493.2 656.2c7.7 2.5 15.5 4.8 23.3 7.1q0 3.2 0.9 6.3c-5.4 1.2-10.7 2.9-15.9 5.5-2.6 1.3-5.2 2.8-7.6 4.4q-2.9-12-3.5-24.3 1.4 0.5 2.8 1z"/>
						</g>
						<g id="Layer">
							<path id="Layer" class="s1" d="m428 756.9c-5.5-0.5-10.2-2.8-13.7-6.7q-0.3-0.8-0.7-1.7c-0.4-1.2-1.2-1.8-2.1-2.1-2.9-4.9-4.3-10.6-4.6-16.3-0.6-13.5 4.8-28.1 17.9-33.9 6.5-2.8 12.8-2.2 19.4-0.1 6.7 2.1 13.4 4.6 20.6 4 12.8-1.3 23-9.7 33.5-16.2 6.8-4.1 14-7 21.8-8.5 7.7-1.6 15.6-1.8 23.4-1.7 13.6 0.1 27.3 1.1 40.8-0.1q-16.4 17.6-32.7 35.1c-10.2 10.9-20 23.3-32.9 31.2-13.2 8-29.3 10.2-44.3 12.6q-12 1.9-23.9 3.2c-7.4 0.8-15.1 2-22.5 1.2z"/>
						</g>
						<g id="Layer">
							<path id="Layer" class="s1" d="m444.6 689.8c3.1-3.5 5.8-7.2 8.2-11.1 0.3 4.8 1 9.6 2.2 14.3-3.4-0.9-6.9-2.2-10.4-3.2z"/>
						</g>
						<g id="Layer">
							<path id="Layer" class="s1" d="m484.2 654.8c0.4 9.2 1.7 18.4 3.9 27.3 0.1 0.4 0.2 0.7 0.4 1-7.1 4.7-14.3 9.3-22.7 10.6-1.5 0.3-2.9 0.3-4.4 0.2q0.1-0.6-0.1-1.3c-2.1-7.4-2.9-15.1-2.4-22.7 8.7-2.4 16.9-8 24.1-13.6q0.8-0.7 1.2-1.5z"/>
						</g>
						<g id="Layer">
							<path id="Layer" class="s1" d="m383.6 415.1c-0.2-3.3 0.3-5.4 3.5-6.7 2.6-1.1 5.5-1.6 8.2-2.4 3.1-1.1 6.2-2.4 9.2-3.9 0.5-0.3 1-0.6 1.5-0.9-6.6 10.2-13.2 20.4-19.4 30.9q-0.8 1.4-1.6 2.8c-0.1-2.8-0.4-5.7-0.6-8.5-0.3-3.7-0.6-7.5-0.8-11.3z"/>
						</g>
						<g id="Layer">
							<g id="Layer">
								<path id="Layer" fill-rule="evenodd" class="s1" d="m928.7 358.7c-21.7 1.4-42.5 9.1-62.9 16.2-45 15.4-91.9 25.9-139.4 29.1-46.6 3-94-1.1-138.7-15.2-22.9-7.2-44.2-17.8-66.1-27.5-20.9-9.2-43.2-17.6-66.4-16.5q-4.8 0.1-9.6 0.9c6.3-15.3 9.3-32 1.6-47.2-13.1-25.5-45.2-28.3-70.4-29.3-4-0.1-4 6 0 6.2 22.4 0.9 51 2.5 63.9 24.2 8.8 15 4.7 32.2-2.4 47.6-1.7 0.6-2.2 2.2-1.7 3.7q-0.8 1.4-1.5 2.8c-3-5.8-6.8-11.1-11.2-16-5.8-6.5-12.5-12.7-21.5-13.9-8.1-1.2-16.6 1.5-23.2 6.4-5.6 4.1-9.9 9.5-13.7 15.2-3.2-16.2 4.5-33.1 3.1-49.6-0.8-9.8-4.4-19.2-5-29.1-0.5-9.6 1-19.2 3.7-28.4 3.1-10.5 7.8-20.5 13.1-30.1 0.6-1 0.5-2.1 0-3 22.3-0.4 44.6 0.8 66.7 2.4 33 2.3 65.9 6.2 98.7 10.5 19.9 2.6 39.8 5.4 59.7 8-9.6 2.8-18.9 6.9-27.9 11-8.8 4.1-17.6 8.4-26.8 11.6-7.8 2.7-17.5 5.8-24.9 0.8-3.4-2.2-6.5 3.1-3.2 5.3 7.5 5.1 17 3.8 25.2 1.4 9.5-2.9 18.6-7.1 27.6-11.3 16.5-7.7 33.7-15.8 52.1-15.8 38.3 5 76.6 9.3 115.2 11.3 16.2 0.8 32.4 1.2 48.5 1.1 16.7-0.2 33.3-1.2 49.9-0.6 15.7 0.5 31.1 2.8 46.1 7.6 14.6 4.7 28.5 11.3 42.2 18.1q5.4 2.7 10.8 5.4c6.7 29.4-1.3 59.1-11.6 86.7zm-363.2-46.8c0.2 3.9 6.4 3.9 6.2 0-1.1-17.2 7.6-34.1 21.7-43.8 8.1-5.6 17.2-8.1 27-8.4 11-0.5 22.1 0.8 32.9 3 12.3 2.5 24.2 6.5 35.6 11.8 3.6 1.6 6.7-3.7 3.1-5.4-21.6-10.1-45.8-16.1-69.7-15.7-10.6 0.2-21.1 2.4-30.2 8.1-7.9 5-14.5 11.9-19.2 20-5.3 9.2-8.1 19.8-7.4 30.4zm140.1-13.6c-9.8-8.6-19.9-17.4-31.8-23-12.6-5.9-26.3-7.2-40.1-6.4-13.2 0.8-27.7 2.2-39.4 9-5 2.9-9.3 6.7-12.5 11.5-3.6 5.3-4.6 11.3-5.4 17.5-0.4 3.4-0.9 6.8-2.7 9.7-1.8 3.1-4.6 5.6-6.3 8.7-2.8 5.1-2.7 12 2.5 15.4q0.2 0.1 0.4 0.2c0.8 1.2 2.4 1.9 4 1 15.3-8.6 33.5-7.3 50.4-8.7 18.4-1.5 35.6-7.4 52.2-15.3 9.6-4.5 18.8-9.6 28-14.8 1.7-0.9 2.2-3.5 0.7-4.8z"/>
							</g>
						</g>
						<g id="Layer">
							<path id="Layer" class="s1" d="m380.8 382c-2.9-6.3-3.2-13.9 0.5-19.9 2.7-2 7.1-0.7 9.5 1.7 4.3 4.4 5.7 11.7 6 17.6 0.1 3.5-0.2 7-1.1 10.4-0.4 1.5-1.4 4.8-3.4 4.6-1.1-0.1-2.3-1.7-3.1-2.4q-1.7-1.9-3.3-3.9c-2-2.5-3.7-5.2-5.1-8.1z"/>
						</g>
						<g id="Layer">
							<path id="Layer" class="s1" d="m400.1 397.3c2.1-4.1 2.7-9.5 2.9-12.9 0.2-8.4-1.7-18.5-7.7-24.8-2.5-2.6-5.8-4.4-9.5-4.7 0.4-0.3 0.8-0.6 1.2-0.9 5.6-4.3 11.6-5.9 18.6-4.6 7.7 1.4 15.4 3.5 23 5.3 1.1 1.9 2 3.8 2.8 5.8q-1.6 2.9-3.2 5.5c-3.9 6.7-8.1 13.3-12.2 19.8-4.6 4.8-9.9 8.6-15.9 11.5z"/>
						</g>
						<g id="Layer">
							<path id="Layer" class="s1" d="m669.1 279.9c10.8 4.7 20.1 12.3 28.9 20-15 8.3-30.2 16.5-46.6 21.8-8.7 2.7-17.6 4.6-26.7 5.3-6 0.5-12.1 0.7-18.1 1.1q0.7-0.6 1.3-1.3c2.4-3 3.5-7.3 4.3-11.1 1.6-8.3 1.1-17.2-1.8-25.2-1.2-3.2-2.9-8.2-6-10.5 9.1-3.4 19.4-4.2 28.8-4.9 12.2-0.7 24.6-0.1 35.9 4.8z"/>
						</g>
						<g id="Layer">
							<path id="Layer" class="s1" d="m580.7 315.7c0.8-2.2 1.4-4.5 1.7-7.1 0.7-5.3 1.2-10.5 4.1-15.2q0.4-0.6 0.9-1.3c2 5.7 1.3 12.3-1.6 17.6-1.3 2.4-3.1 4.3-5.1 6z"/>
						</g>
						<g id="Layer">
							<path id="Layer" class="s1" d="m606.3 313.7c-0.6 2.8-1.2 5.9-2.6 8.3-0.3 0.6-0.6 1-1 1.4-0.1-0.1-0.2-0.2-0.3-0.3-0.7-1.2-1.6-2.3-2.3-3.5-2.8-4.8-4.4-10.3-4.8-15.9-0.3-4.7 0.3-9.4 1.7-13.8 0.6-0.3 1.2-0.9 1.5-1.7 0.3-0.9 0.8-2.8 1.7-3.2 1-0.3 1.5 1.5 2 2.3 1.5 2.8 2.6 5.7 3.4 8.7 1.5 5.7 1.8 11.9 0.7 17.7z"/>
						</g>
						<g id="Layer">
							<path id="Layer" class="s1" d="m597.9 327.2q0.7 0.9 1.6 1.4c-0.2 0.1-0.5 0.1-0.8 0.1-8.9 0.9-17.5 2.8-25.4 6.8-0.1 0-0.2-0.1-0.2-0.1-1.9-1.2-1.9-3.1-1.2-5.1 1.2 0.5 2.7 0.2 3.5-1.3 2-3.8 5.9-5.9 9.1-8.4 2.5-2 4.6-4.5 6.3-7.2 1.4 5 3.7 9.9 7.1 13.8z"/>
						</g>
						<g id="Layer">
							<path id="Layer" class="s1" d="m419.5 342.1q2.2 2.4 4.2 5c-5.6-1.4-11.3-2.8-17-3.7-7.1-1.3-13.9-0.5-20.2 3.4-8.8 5.5-14.7 15.3-23 21.3 1.8-4.6 3.1-9.3 4-14.2 0-0.1 0-0.1 0-0.2 7.5-11.8 18.1-26.2 34.1-23.9 7.5 1.1 13.1 6.8 17.9 12.3z"/>
						</g>
						<g id="Layer">
							<path id="Layer" class="s1" d="m491.5 503.7c-9.5-1.8-18.7-4.9-27.3-9.2 1.9-4.2 7.1-7.1 11.8-8 7-1.4 14.7-0.5 21.3 2 6.2 2.2 12.1 6.6 14.3 13 0.4 1.1 1.1 3-0.2 3.6-1.5 0.8-4.5 0.1-6.2 0q-6.9-0.2-13.7-1.4z"/>
						</g>
						<g id="Layer">
							<path id="Layer" class="s1" d="m937.9 358.6q-1.3 0-2.6 0c9.8-26.7 16.9-54.8 12-83.1 7 3.5 14.1 7 21.3 10.1 14 6.1 28.3 10.7 42.9 14.8 8.3 2.3 16.6 4.6 24.8 7.2 0 0.1 0 0.2 0 0.3 0.1 25.1-1.9 50.1-6.1 74.8-6.6-2.4-13.2-4.6-19.9-6.8-23.4-7.8-47.4-16.6-72.4-17.3z"/>
						</g>
						<g id="Layer">
							<path id="Layer" class="s1" d="m407.5 552.9c-12.2 6.9-23 15.9-31.2 27.2-3.9-21.9-5.3-44.1-3.9-66.3 7.7 15.7 21.2 28.5 35.1 39.1z"/>
						</g>
						<g id="Layer">
							<g id="Layer">
								<path id="Layer" fill-rule="evenodd" class="s1" d="m413.4 549.8c-16.5-12.4-33.3-28-39.2-48.3q-0.4-1.1-0.6-2.2 0 0 0 0c0.1-0.8-0.1-1.4-0.4-1.9-4.7-23.4 9-46 20.6-65.4 13.4-22.4 28.6-43.6 41.7-66.2q0.6-1.1 1.3-2.3c0.8-0.4 1.3-1.2 1.3-2.3q2.3-4.2 4.4-8.6c22.3-4.7 44.6 1.3 65.4 9.6 21.8 8.7 42.5 19.9 64.5 28 43.2 15.7 89.5 21.8 135.3 20.8 46.7-1.1 93-9.5 137.7-23 23-7 45.4-16.9 69.1-21.3 3.9-0.8 7.8-1.2 11.7-1.5q-0.6 1.6-1.2 3.2c-12.1 30.5-24.9 61.1-40.2 90.2-14.2 27.2-31.3 52.8-51.8 75.8-19.4 21.8-41.4 41.4-64.8 58.9-25.2 18.8-52.2 35.1-80.1 49.7-7-22.8-14.9-45.8-28.5-65.6-6.6-9.7-14.6-18.4-24.3-25.1-11.7-8.3-25.5-12.8-39.6-15.2-32.6-5.6-66.7-6.3-99.8-4.9-24.7 1-49.9 4.2-73 13.4q-4.8 1.9-9.5 4.2zm159.1-123.1c29.8 41.6 73.2 71 103.6 112.1 8.4 11.4 15.7 23.6 20.9 36.8 1.4 3.6 7.4 2 5.9-1.7-19.3-48.5-61.8-81-97.1-117.4-10-10.4-19.5-21.2-27.9-33-2.3-3.2-7.7-0.1-5.4 3.2zm-41 11c15.8 8.9 30.2 22.3 34 40.8 1.8 8.6 0.9 17.9-3.5 25.6-4 6.9-10.6 12.4-18.3 14.4-10.5 2.9-20.9-3-31.6-1.3-3.9 0.6-2.2 6.6 1.7 5.9 5.6-0.9 11.2 0.9 16.7 1.8 4.9 0.8 9.7 0.9 14.5-0.3 8.7-2.2 16.2-8.1 21.1-15.5 11.5-17.1 6.3-40-5.6-55.4-7-8.9-16.1-15.8-25.9-21.3-3.5-2-6.6 3.4-3.1 5.3zm-73.4 65.5c1.4 3.6 7.4 2.1 6-1.6q-0.1-0.2-0.1-0.3c8.8 4.1 18.1 7 27.7 8.6 5.7 1 11.4 1.5 17.2 1.5 5 0 9.4-1.9 9.4-7.6-0.1-8.8-8.4-16.3-15.7-19.7-8.4-4-18.3-5.3-27.5-3.7-5.4 0.9-10.7 3.3-14.1 7.7-3.4 4.2-4.9 10-2.9 15.1zm-41.9 40.9c3.2 2.3 6.3-3.1 3.1-5.3-6.1-4.3-11.7-9.4-16.6-14.9-1.8-2.1-13.6-15-8.7-17.3 1.4-0.7 3.7 0.9 4.9 1.5q2.8 1.3 5.6 2.6 5.6 2.5 11.3 4.6c7.2 2.6 14.7 4.9 22.3 6 7.9 1.1 16.1 0.7 23-3.7 3.4-2 0.3-7.4-3.1-5.3-6.9 4.3-15.2 3.8-22.9 2.2-8.6-1.8-17.2-4.7-25.3-8.2-4-1.7-8-4.2-12.2-5.5-3.6-1.2-7.6-0.1-9.6 3.4-4.1 7.3 3.2 15.3 7.5 20.7 6 7.4 12.9 13.7 20.7 19.2z"/>
							</g>
						</g>
					</g>
				</g>
			</g>
		</g>
		<g id="Layer">
			<path id="Layer" class="s2" d="m145.5 774.9c-9.2 2.3-17.1 3.2-26.1 3.2-25.6 0-41.7-12.5-41.7-38.8 0-25.1 17.1-40 45.3-40 7.4 0 14.9 1.1 19.5 2.7l-0.1 22.4-0.5 0.2c-5.4-2.7-12.3-4.2-19.6-4.2-13.3 0-20.4 6.5-20.4 18.9 0 11.8 6.8 17.8 18.8 17.8 1.5 0 2.4-0.1 3.9 0.3v-6.9h-6.2v-17.4h27.1z"/>
			<path id="Layer" class="s2" d="m158.2 701.2h23.5v75.7h-23.5z"/>
			<path id="Layer" class="s2" d="m220.4 722.2v11.2h23.4v20.5h-23.4v23h-23.4v-75.7h50.8v21z"/>
			<path id="Layer" class="s2" d="m320.3 722.2h-21.3v54.7h-23.6v-54.7h-22.7v-21h67.6z"/>
			<path id="Layer" class="s2" d="m77.6 848.3c0-25.8 16.6-40.6 40.5-40.6 6.1 0 11.8 0.4 18.7 2.1v21.9l-0.4 0.3c-4.9-2.2-9.8-3.2-14.9-3.2-13.1 0-19.8 6.3-19.8 18.3 0 12.1 7 18.4 20.5 18.4 5.8 0 9.5-0.8 14-2.4l0.6 0.5v21.1c-4.6 1-12.1 1.9-18.3 1.9-22.8 0-40.9-13.7-40.9-38.3z"/>
			<path id="Layer" fill-rule="evenodd" class="s2" d="m191.7 879.2h-25.7l-2.4 6h-23.3l33.2-75.4h10.5l34.7 75.4h-24.3zm-7-15.6l-4.6-10.2-2.1-6.1-2 6.1-4 10.2z"/>
			<path id="Layer" fill-rule="evenodd" class="s2" d="m288.8 884.8l-0.2 0.4h-24.9l-13.2-22.2h-3v22.2h-23.2v-75.6c9.8-0.8 16.7-1 26.5-1 17.1 0 35.1 4.9 35.1 26.5 0 12.8-5.5 20.5-12.8 24.4zm-41.3-56v17h5c5.9 0 9.8-3.4 9.8-8.6 0-6-4.1-8.7-9.2-8.7-1.4 0-3.7 0-5.6 0.3z"/>
			<path id="Layer" fill-rule="evenodd" class="s2" d="m371.5 846.5c0 25.3-17.3 38.9-43.6 38.9-16.5 0-24.7 0-28.5-0.2v-75.6c3.6-0.3 14.9-1.2 31.1-1.2 24.8 0 41 14.6 41 38.1zm-24 0.4c0-12.8-8.7-17.4-17.4-17.4-4.5 0-5 0.1-7.4 0.4v34.8c2.7 0.2 3.6 0.1 7.8 0.1 11.3-0.1 17-5.8 17-17.9z"/>
			<path id="Layer" class="s2" d="m380.6 881.6v-20.9l0.5-0.2c6.5 4.4 13.8 6.6 20.7 6.6 4.7 0 7.1-1.4 7.1-4.4 0-2.5-0.9-4.5-10.2-8.3-9.2-3.6-17.9-10.1-17.9-22.8 0-16.6 13.4-23.8 28.6-23.8 10.7 0 16.4 1.5 20.6 3v19.5l-0.4 0.2c-4.2-2.2-10.6-3.1-16.6-3.2-6.3-0.1-9.1 1-9.1 3.4 0 2.3 2.6 3.7 10.9 7 8.4 3.4 17.6 10.2 17.6 24.2 0 15.1-10.9 24.6-28 24.6-11.5 0-17.9-2.4-23.8-4.9z"/>
		</g>
	</g>
</svg>